# xmcd
#
# Track frame offsets: 
#        150
#        25541
#        48401
#        60194
#        89517
#        105251
#        127109
#        149129
#        169016
#        187168
#        203443
#        222845
#        240890
#        265831
#        281176
#        309796
#        327759
#
# Disc length: 4771 seconds
#
# Revision: 2
# Processed by: cddbd v1.5.2PL0 Copyright (c) Steve Scherf et al.
# Submitted via: ExactAudioCopy v1.3
#
DISCID=e912a111
DTITLE=Various Artist - Akella Presents - vol.45 - Blues Instrumental
DTITLE=CD1
DYEAR=2014
DGENRE=Blues
TTITLE0=Pat Ramsey - Chitlins Con Carne
TTITLE1=Ronnie Earl - Szeren
TTITLE2=Henry Cooper - Wicked Wacky Blues
TTITLE3=Duke Robillard - Duke's Mood
TTITLE4=B.B.King - Blues Boy's Tune
TTITLE5=The Mick Clarke Band - Gypsy Blues
TTITLE6=Nuno Mindelis - Answer To Ronnie
TTITLE7=Chuck Colombo - Space
TTITLE8=Smokin' Joe Kubek - Spanish Trace
TTITLE9=Snowy White - Softly
TTITLE10=Colin James - Speechless
TTITLE11=Dave Nevling - Sancho
TTITLE12=Jan Akkerman - Key to the Highway
TTITLE13=Vargas Blues Band - Blues Hondo
TTITLE14=Stanley Jordan - Riviera Paradise
TTITLE15=Ronnie Earl - Green Light
TTITLE16=Shawn Kellerman - Love is Sweet
EXTD=
EXTT0=
EXTT1=
EXTT2=
EXTT3=
EXTT4=
EXTT5=
EXTT6=
EXTT7=
EXTT8=
EXTT9=
EXTT10=
EXTT11=
EXTT12=
EXTT13=
EXTT14=
EXTT15=
EXTT16=
PLAYORDER=
